<svg width="160" height="16" viewBox="0 0 160 16" fill="none" xmlns="http://www.w3.org/2000/svg">
<g clip-path="url(#clip0_19750_3276)">
<path d="M-0.00160568 2.74434C-0.00726211 2.39452 0.0561977 2.04714 0.185001 1.72282C0.313805 1.3985 0.505321 1.10388 0.748156 0.856495C0.99099 0.609106 1.28019 0.413981 1.59854 0.282761C1.91689 0.151542 2.25789 0.0869 2.60126 0.0926625C2.94467 0.0867709 3.28573 0.151338 3.60414 0.282512C3.92255 0.413686 4.21179 0.608786 4.45465 0.856201C4.69751 1.10362 4.88902 1.39828 5.01778 1.72266C5.14654 2.04704 5.20991 2.39449 5.20413 2.74434C5.20979 3.09411 5.14633 3.44147 5.01751 3.76575C4.8887 4.09002 4.69717 4.38457 4.45432 4.63189C4.21147 4.8792 3.92227 5.07423 3.60392 5.20535C3.28558 5.33647 2.94459 5.401 2.60126 5.39511C2.25797 5.40087 1.91704 5.33624 1.59875 5.20508C1.28046 5.07392 0.991308 4.8789 0.748486 4.63161C0.505664 4.38432 0.314132 4.0898 0.185273 3.76559C0.0564145 3.44137 -0.00713887 3.09408 -0.00160568 2.74434Z" fill="#1E293B"/>
<path d="M7.37695 14.6871V10.6522H7.83168C8.35189 13.6263 9.77792 15.079 12.1771 15.079C14.0778 15.079 15.322 14.0867 15.322 12.3347C15.322 10.4446 13.8741 9.77566 11.656 8.90011C9.61967 8.09311 7.49245 7.30928 7.49245 4.63813C7.49245 2.12542 9.34775 0.327065 12.4708 0.327065C14.3716 0.327065 15.4811 0.857027 16.9063 1.24894V5.16811H16.4515C15.9759 2.56367 14.5498 1.24894 12.2871 1.24894C10.6128 1.24894 9.57148 2.10225 9.57148 3.64675C9.57148 5.00688 10.3636 5.67583 12.8528 6.64404C15.2292 7.58909 17.5374 8.44241 17.5374 11.3693C17.5374 14.2053 15.4329 16.0019 12.1971 16.0019C9.63877 16.0009 8.46376 15.1244 7.37695 14.6871Z" fill="#002133"/>
<path d="M24.8489 14.0413C26.003 14.0413 27.0434 13.6948 27.881 13.05L28.1748 13.3724C27.5645 14.1562 26.1612 16.0009 23.7621 16.0009C20.9109 16.0009 18.8965 13.7875 18.8965 10.6522C18.8965 7.7466 20.7973 5.1644 23.7393 5.1644C26.2967 5.1644 27.8583 7.05542 27.6318 9.84516H20.9555V9.98321C20.9555 12.4042 22.3361 14.0413 24.8489 14.0413ZM25.5765 8.92234C25.6447 7.26295 24.9653 6.08721 23.6302 6.08721C22.3397 6.08721 21.3447 7.19347 21.0501 8.92234H25.5765Z" fill="#002133"/>
<path d="M34.4439 5.1644C36.2773 5.1644 37.4542 5.87968 37.4542 7.10175C37.4544 7.29856 37.4165 7.49348 37.3427 7.67536C37.2689 7.85724 37.1606 8.02249 37.024 8.16166C36.8874 8.30082 36.7251 8.41117 36.5466 8.48638C36.3681 8.56158 36.1768 8.60016 35.9836 8.59992C35.0323 8.59992 34.5121 7.83926 34.5121 7.10175C34.5102 6.92247 34.5432 6.74459 34.6093 6.5784C34.6753 6.41221 34.773 6.26101 34.8968 6.13353C34.6973 6.08134 34.4915 6.05857 34.2856 6.0659C32.3848 6.0659 31.1625 7.8411 31.1625 10.0499C31.1625 12.4941 32.6568 14.0339 35.055 14.0339C36.2091 14.0339 37.2504 13.6874 38.088 13.0426L38.3818 13.365C37.7706 14.1488 36.3683 15.9935 33.9691 15.9935C31.118 15.9935 29.1035 13.7801 29.1035 10.6447C29.1017 7.49366 31.2989 5.1644 34.4439 5.1644Z" fill="#002133"/>
<path d="M40.4417 12.4968V8.83062C40.4417 7.79292 39.876 7.00909 38.8574 6.87103V6.40778C40.0544 6.12741 41.2274 5.74973 42.3652 5.27836L42.478 5.34692V11.9641C42.478 13.5086 43.1346 14.3619 44.2887 14.3619C45.2891 14.3619 46.0994 13.693 46.7779 12.633V8.82876C46.7779 7.79107 46.2122 7.00724 45.1936 6.86919V6.40593C46.3907 6.1257 47.5637 5.74801 48.7014 5.2765L48.8151 5.34507V12.3542C48.8151 13.3919 49.3808 14.1757 50.3994 14.3137V14.777C49.2023 15.0572 48.0293 15.4349 46.8916 15.9064L46.7779 15.8379V13.9005H46.6651C45.9185 15.4459 44.5825 15.9991 43.4284 15.9991C41.6631 16.0009 40.4417 14.5482 40.4417 12.4968Z" fill="#002133"/>
<path d="M51.5303 15.3088C52.5489 15.1708 53.1145 14.3823 53.1145 13.3492V8.83062C53.1145 7.79292 52.5489 7.00908 51.5303 6.87103V6.40778C52.7273 6.12741 53.9003 5.74973 55.0381 5.27836L55.1508 5.34692V13.3474C55.1508 14.3851 55.7174 15.1689 56.9616 15.307V15.7702H51.5303V15.3088ZM56.1685 6.6635C56.1681 6.46653 56.206 6.27143 56.2798 6.08939C56.3536 5.90734 56.462 5.74194 56.5987 5.60266C56.7354 5.46338 56.8978 5.35297 57.0765 5.27776C57.2552 5.20255 57.4467 5.16403 57.64 5.1644C57.8335 5.16367 58.0253 5.20192 58.2043 5.27698C58.3832 5.35203 58.5458 5.4624 58.6828 5.60172C58.8197 5.74105 58.9282 5.90659 59.0021 6.08881C59.076 6.27103 59.1138 6.46634 59.1133 6.6635C59.1138 6.86038 59.0761 7.05542 59.0024 7.23741C58.9286 7.4194 58.8203 7.58474 58.6837 7.72396C58.547 7.86317 58.3847 7.97351 58.2061 8.04863C58.0274 8.12375 57.836 8.16216 57.6427 8.16168C57.4493 8.16241 57.2576 8.12418 57.0787 8.04919C56.8998 7.97419 56.7372 7.86391 56.6003 7.72468C56.4634 7.58545 56.3548 7.42002 56.2809 7.23791C56.2069 7.05579 56.1691 6.86058 56.1694 6.6635H56.1685Z" fill="#002133"/>
<path d="M65.8567 14.0413C67.0108 14.0413 68.0512 13.6948 68.8888 13.05L69.1835 13.3724C68.5723 14.1562 67.169 16.0009 64.7699 16.0009C61.9187 16.0009 59.9043 13.7875 59.9043 10.6522C59.9043 7.7466 61.806 5.1644 64.7472 5.1644C67.3046 5.1644 68.8661 7.05542 68.6396 9.84516H61.9642V9.98321C61.9642 12.4042 63.3448 14.0413 65.8567 14.0413ZM66.5843 8.92234C66.6525 7.26295 65.9731 6.08721 64.638 6.08721C63.3484 6.08721 62.3526 7.19347 62.0579 8.92234H66.5843Z" fill="#002133"/>
<path d="M70.3379 10.9764C70.3379 7.63356 72.6234 5.16626 75.4518 5.16626C76.2763 5.15431 77.0864 5.38672 77.7836 5.8352V3.55318C77.7836 2.51548 77.217 1.73166 76.1993 1.59268V1.12942C77.3963 0.848345 78.5693 0.470366 79.7071 -0.000923157L79.8199 0.0685655V12.3569C79.8199 13.3946 80.3856 14.1785 81.4042 14.3165V14.7798C80.2072 15.0602 79.0341 15.4378 77.8964 15.9092L77.7836 15.8406V13.9033H77.6672C77.0306 15.3329 75.721 16.0019 74.4314 16.0019C72.2387 16.0009 70.3379 14.0182 70.3379 10.9764ZM75.2262 14.3656C76.1311 14.3656 77.0815 13.8588 77.7836 12.6368V6.7997C77.2625 6.33645 76.4258 6.08535 75.701 6.08535C74.0494 6.08535 72.3514 7.51497 72.3514 10.4196C72.3514 12.9342 73.6192 14.3638 75.2262 14.3638V14.3656Z" fill="#002133"/>
<path d="M88.419 12.8888V3.43829C88.419 2.2857 87.5814 1.38607 86.3818 1.24802V0.556839H97.9238V5.16718H97.469C97.1753 2.7008 96.2695 1.47872 94.3914 1.47872H90.6818V7.84203L93.4201 7.81887C94.9589 7.81887 95.842 7.01187 95.9548 5.5137H96.4095V11.0468H95.9548C95.842 9.54774 94.9544 8.74075 93.4201 8.74075L90.6818 8.76391V12.6608C90.6818 14.021 91.5194 15.0123 92.9445 15.0587V15.773H86.3818V15.0531C87.5796 14.9401 88.419 14.0182 88.419 12.8888Z" fill="#002133"/>
<path d="M100.594 13.3492V8.83062C100.594 7.79292 100.028 7.00909 99.0098 6.87104V6.40778C100.207 6.12755 101.38 5.74987 102.518 5.27836L102.631 5.34693V13.3474C102.631 14.3851 103.197 15.1689 104.215 15.307V15.7702H99.0098V15.307C100.028 15.1708 100.594 14.3869 100.594 13.3492ZM101.477 0.554061C101.67 0.553451 101.862 0.591771 102.041 0.666822C102.22 0.741873 102.382 0.852181 102.519 0.991397C102.656 1.13061 102.764 1.29599 102.838 1.47804C102.912 1.6601 102.95 1.85523 102.95 2.05223C102.95 2.24912 102.912 2.44416 102.838 2.62615C102.765 2.80813 102.656 2.97348 102.52 3.11275C102.383 3.25201 102.221 3.36244 102.042 3.43771C101.864 3.51297 101.672 3.55159 101.479 3.55135C101.286 3.55172 101.094 3.51318 100.915 3.43798C100.737 3.36277 100.574 3.25236 100.438 3.11309C100.301 2.97381 100.193 2.80839 100.119 2.62635C100.045 2.4443 100.007 2.2492 100.007 2.05223C100.007 1.85546 100.045 1.66057 100.119 1.4787C100.192 1.29683 100.301 1.13155 100.437 0.992369C100.574 0.85319 100.736 0.742829 100.914 0.667614C101.093 0.592399 101.284 0.553817 101.477 0.554061Z" fill="#002133"/>
<path d="M113.155 13.3492V9.19937C113.155 7.65487 112.498 6.80155 111.344 6.80155C110.348 6.80155 109.533 7.47049 108.855 8.53043V13.3483C108.855 14.386 109.421 15.1698 110.213 15.3079V15.7711H105.233V15.3079C106.252 15.1698 106.818 14.3814 106.818 13.3483V8.82969C106.818 7.79199 106.252 7.00817 105.233 6.87012V6.40686C106.43 6.12649 107.603 5.7488 108.741 5.27743L108.855 5.34599V7.26018H108.968C109.714 5.71568 111.049 5.16162 112.204 5.16162C113.969 5.16162 115.191 6.61439 115.191 8.66662V13.3465C115.191 14.499 115.598 14.9836 116.775 15.306V15.7693H111.797V15.306C112.772 14.9864 113.155 14.5018 113.155 13.3492Z" fill="#002133"/>
<path d="M117.838 13.2807C117.838 11.7816 118.879 10.8134 121.143 10.1213L123.541 9.38005V9.14935C123.541 7.53535 122.84 6.75152 121.437 6.75152C120.305 6.75152 119.399 7.23608 118.426 8.11257L118.133 7.78922C118.744 7.00538 120.214 5.16069 122.432 5.16069C124.333 5.16069 125.578 6.52175 125.578 8.66571V13.9913C125.578 14.4981 125.827 14.752 126.144 14.752C126.453 14.7406 126.752 14.6365 127.003 14.4527L127.276 14.7983C126.64 15.5395 125.964 15.9509 125.149 15.9509C124.357 15.9509 123.542 15.5358 123.542 14.1757V13.8977H123.429C122.793 15.3042 121.731 15.9963 120.51 15.9963C118.879 16.0009 117.838 14.802 117.838 13.2807ZM121.229 14.2943C121.976 14.2943 122.882 13.7643 123.537 12.6349V10.2352L121.909 10.7652C120.302 11.2961 119.871 12.0799 119.871 12.8406C119.875 13.7412 120.486 14.2943 121.229 14.2943Z" fill="#002133"/>
<path d="M136.102 13.3492V9.19937C136.102 7.65487 135.445 6.80155 134.291 6.80155C133.291 6.80155 132.481 7.4705 131.802 8.53043V13.3483C131.802 14.386 132.368 15.1698 133.16 15.3079V15.7712H128.181V15.3079C129.199 15.1698 129.765 14.3814 129.765 13.3483V8.82969C129.765 7.79199 129.199 7.00817 128.181 6.87012V6.40686C129.378 6.12753 130.551 5.75077 131.688 5.28022L131.802 5.34878V7.26296H131.915C132.662 5.71846 133.998 5.1644 135.152 5.1644C136.917 5.1644 138.138 6.61717 138.138 8.66941V13.3492C138.138 14.5018 138.546 14.9864 139.723 15.3088V15.7721H134.744V15.3088C135.717 14.9864 136.102 14.5018 136.102 13.3492Z" fill="#002133"/>
<path d="M145.992 5.1644C147.825 5.1644 149.002 5.87968 149.002 7.10175C149.002 7.29864 148.964 7.49364 148.89 7.67557C148.817 7.85751 148.708 8.0228 148.571 8.16198C148.435 8.30116 148.272 8.41149 148.094 8.48664C147.915 8.56179 147.724 8.60028 147.53 8.59992C146.58 8.59992 146.06 7.83926 146.06 7.10175C146.058 6.92247 146.091 6.74459 146.157 6.5784C146.223 6.41221 146.321 6.26101 146.445 6.13353C146.245 6.08072 146.039 6.05732 145.833 6.06405C143.933 6.06405 142.71 7.83925 142.71 10.0481C142.71 12.4922 144.204 14.0321 146.603 14.0321C147.757 14.0321 148.798 13.6856 149.636 13.0407L149.93 13.3631C149.318 14.147 147.915 15.9917 145.517 15.9917C142.665 15.9917 140.651 13.7782 140.651 10.6429C140.651 7.49366 142.846 5.1644 145.992 5.1644Z" fill="#002133"/>
<path d="M156.673 14.0413C157.827 14.0413 158.869 13.6948 159.706 13.05L160 13.3724C159.389 14.1562 157.986 16.0009 155.587 16.0009C152.735 16.0009 150.722 13.7875 150.722 10.6522C150.722 7.7466 152.622 5.1644 155.565 5.1644C158.122 5.1644 159.683 7.05542 159.457 9.84516H152.781V9.98321C152.781 12.4042 154.161 14.0413 156.673 14.0413ZM157.401 8.92234C157.469 7.26295 156.79 6.08721 155.454 6.08721C154.165 6.08721 153.169 7.19347 152.875 8.92234H157.401Z" fill="#002133"/>
</g>
<defs>
<clipPath id="clip0_19750_3276">
<rect width="160" height="16" fill="white"/>
</clipPath>
</defs>
</svg>
