<svg width="160" height="16" viewBox="0 0 160 16" fill="none" xmlns="http://www.w3.org/2000/svg">
<g id="Secured Finance Logo Light" clip-path="url(#clip0_20476_24631)">
<path id="Vector" d="M-0.000629114 2.74435C-0.00628555 2.39453 0.0571742 2.04715 0.185978 1.72283C0.314782 1.39851 0.506298 1.10389 0.749132 0.856503C0.991967 0.609113 1.28116 0.413988 1.59951 0.282769C1.91786 0.151549 2.25887 0.0869077 2.60224 0.0926702C2.94565 0.0867786 3.28671 0.151346 3.60511 0.28252C3.92352 0.413694 4.21277 0.608793 4.45563 0.856209C4.69849 1.10362 4.89 1.39829 5.01876 1.72267C5.14752 2.04705 5.21089 2.3945 5.20511 2.74435C5.21077 3.09412 5.1473 3.44148 5.01849 3.76575C4.88967 4.09002 4.69814 4.38458 4.4553 4.6319C4.21245 4.87921 3.92324 5.07424 3.6049 5.20536C3.28655 5.33647 2.94557 5.40101 2.60224 5.39512C2.25894 5.40088 1.91801 5.33625 1.59973 5.20509C1.28144 5.07392 0.992285 4.8789 0.749463 4.63161C0.506641 4.38432 0.315109 4.08981 0.18625 3.76559C0.0573911 3.44138 -0.0061623 3.09408 -0.000629114 2.74435Z" fill="#5162FF"/>
<path id="Vector_2" d="M7.37744 14.6871V10.6521H7.83217C8.35238 13.6263 9.77841 15.079 12.1776 15.079C14.0783 15.079 15.3225 14.0867 15.3225 12.3347C15.3225 10.4446 13.8746 9.77565 11.6564 8.9001C9.62016 8.0931 7.49294 7.30927 7.49294 4.63813C7.49294 2.12542 9.34824 0.327057 12.4713 0.327057C14.3721 0.327057 15.4816 0.857019 16.9067 1.24894V5.1681H16.452C15.9764 2.56367 14.5503 1.24894 12.2876 1.24894C10.6133 1.24894 9.57196 2.10225 9.57196 3.64675C9.57196 5.00687 10.3641 5.67583 12.8533 6.64403C15.2297 7.58908 17.5379 8.4424 17.5379 11.3693C17.5379 14.2053 15.4334 16.0018 12.1976 16.0018C9.63926 16.0009 8.46424 15.1244 7.37744 14.6871Z" fill="#002133"/>
<path id="Vector_3" d="M24.8494 14.0413C26.0035 14.0413 27.0439 13.6948 27.8815 13.05L28.1753 13.3724C27.565 14.1562 26.1617 16.0009 23.7626 16.0009C20.9114 16.0009 18.897 13.7875 18.897 10.6521C18.897 7.7466 20.7977 5.1644 23.7398 5.1644C26.2972 5.1644 27.8588 7.05542 27.6323 9.84516H20.956V9.98321C20.956 12.4042 22.3365 14.0413 24.8494 14.0413ZM25.5769 8.92234C25.6452 7.26295 24.9658 6.0872 23.6307 6.0872C22.3402 6.0872 21.3452 7.19346 21.0506 8.92234H25.5769Z" fill="#002133"/>
<path id="Vector_4" d="M34.4439 5.1644C36.2773 5.1644 37.4542 5.87967 37.4542 7.10175C37.4544 7.29856 37.4165 7.49348 37.3427 7.67536C37.2689 7.85723 37.1606 8.02248 37.024 8.16165C36.8874 8.30082 36.7251 8.41117 36.5466 8.48637C36.3681 8.56158 36.1768 8.60016 35.9836 8.59991C35.0323 8.59991 34.5121 7.83925 34.5121 7.10175C34.5102 6.92247 34.5432 6.74459 34.6093 6.5784C34.6753 6.41221 34.773 6.261 34.8968 6.13353C34.6973 6.08134 34.4915 6.05856 34.2856 6.0659C32.3848 6.0659 31.1625 7.8411 31.1625 10.0499C31.1625 12.4941 32.6568 14.0339 35.055 14.0339C36.2091 14.0339 37.2504 13.6874 38.088 13.0426L38.3818 13.365C37.7706 14.1488 36.3683 15.9935 33.9691 15.9935C31.118 15.9935 29.1035 13.7801 29.1035 10.6447C29.1017 7.49366 31.2989 5.1644 34.4439 5.1644Z" fill="#002133"/>
<path id="Vector_5" d="M40.4417 12.4968V8.83062C40.4417 7.79292 39.876 7.00909 38.8574 6.87103V6.40778C40.0544 6.12741 41.2274 5.74973 42.3652 5.27836L42.478 5.34692V11.9641C42.478 13.5086 43.1346 14.3619 44.2887 14.3619C45.2891 14.3619 46.0994 13.693 46.7779 12.633V8.82876C46.7779 7.79107 46.2122 7.00724 45.1936 6.86919V6.40593C46.3907 6.1257 47.5637 5.74801 48.7014 5.2765L48.8151 5.34507V12.3542C48.8151 13.3919 49.3808 14.1757 50.3994 14.3137V14.777C49.2023 15.0572 48.0293 15.4349 46.8916 15.9064L46.7779 15.8379V13.9005H46.6651C45.9185 15.4459 44.5825 15.9991 43.4284 15.9991C41.6631 16.0009 40.4417 14.5482 40.4417 12.4968Z" fill="#002133"/>
<path id="Vector_6" d="M51.5308 15.3088C52.5494 15.1708 53.115 14.3823 53.115 13.3492V8.83063C53.115 7.79293 52.5494 7.00909 51.5308 6.87104V6.40779C52.7278 6.12742 53.9008 5.74974 55.0385 5.27837L55.1513 5.34693V13.3474C55.1513 14.3851 55.7179 15.1689 56.962 15.307V15.7702H51.5308V15.3088ZM56.169 6.6635C56.1686 6.46654 56.2065 6.27144 56.2803 6.0894C56.3541 5.90735 56.4625 5.74195 56.5992 5.60267C56.7359 5.46339 56.8983 5.35298 57.077 5.27777C57.2556 5.20256 57.4472 5.16404 57.6405 5.16441C57.834 5.16368 58.0258 5.20193 58.2047 5.27699C58.3837 5.35204 58.5463 5.46241 58.6833 5.60173C58.8202 5.74106 58.9287 5.9066 59.0026 6.08882C59.0765 6.27104 59.1143 6.46635 59.1138 6.6635C59.1143 6.86039 59.0766 7.05543 59.0029 7.23742C58.9291 7.41941 58.8208 7.58475 58.6842 7.72396C58.5475 7.86318 58.3852 7.97352 58.2066 8.04864C58.0279 8.12376 57.8365 8.16217 57.6432 8.16168C57.4498 8.16242 57.2581 8.12419 57.0792 8.0492C56.9003 7.9742 56.7377 7.86392 56.6008 7.72469C56.4639 7.58546 56.3553 7.42003 56.2814 7.23792C56.2074 7.0558 56.1695 6.86059 56.1699 6.6635H56.169Z" fill="#002133"/>
<path id="Vector_7" d="M65.8567 14.0413C67.0108 14.0413 68.0512 13.6948 68.8888 13.05L69.1835 13.3724C68.5723 14.1562 67.169 16.0009 64.7699 16.0009C61.9187 16.0009 59.9043 13.7875 59.9043 10.6521C59.9043 7.7466 61.806 5.1644 64.7472 5.1644C67.3046 5.1644 68.8661 7.05542 68.6396 9.84516H61.9642V9.98321C61.9642 12.4042 63.3448 14.0413 65.8567 14.0413ZM66.5843 8.92234C66.6525 7.26295 65.9731 6.0872 64.638 6.0872C63.3484 6.0872 62.3526 7.19346 62.0579 8.92234H66.5843Z" fill="#002133"/>
<path id="Vector_8" d="M70.3374 10.9764C70.3374 7.63356 72.6229 5.16625 75.4513 5.16625C76.2758 5.15431 77.0859 5.38671 77.7831 5.83519V3.55317C77.7831 2.51547 77.2165 1.73165 76.1989 1.59267V1.12941C77.3958 0.848338 78.5688 0.470358 79.7066 -0.000930786L79.8194 0.0685579V12.3569C79.8194 13.3946 80.3851 14.1785 81.4037 14.3165V14.7798C80.2067 15.0601 79.0337 15.4378 77.8959 15.9092L77.7831 15.8406V13.9033H77.6667C77.0301 15.3329 75.7205 16.0018 74.4309 16.0018C72.2382 16.0009 70.3374 14.0182 70.3374 10.9764ZM75.2257 14.3656C76.1307 14.3656 77.081 13.8588 77.7831 12.6367V6.7997C77.262 6.33644 76.4253 6.08535 75.7005 6.08535C74.0489 6.08535 72.3509 7.51496 72.3509 10.4196C72.3509 12.9342 73.6187 14.3638 75.2257 14.3638V14.3656Z" fill="#002133"/>
<path id="Vector_9" d="M88.419 12.8888V3.43829C88.419 2.2857 87.5814 1.38607 86.3818 1.24802V0.556839H97.9238V5.16718H97.469C97.1753 2.7008 96.2695 1.47872 94.3914 1.47872H90.6818V7.84203L93.4201 7.81887C94.9589 7.81887 95.842 7.01187 95.9548 5.5137H96.4095V11.0468H95.9548C95.842 9.54774 94.9544 8.74075 93.4201 8.74075L90.6818 8.76391V12.6608C90.6818 14.021 91.5194 15.0123 92.9445 15.0587V15.773H86.3818V15.0531C87.5796 14.9401 88.419 14.0182 88.419 12.8888Z" fill="#002133"/>
<path id="Vector_10" d="M100.594 13.3492V8.83062C100.594 7.79292 100.028 7.00908 99.0098 6.87103V6.40777C100.207 6.12754 101.38 5.74986 102.518 5.27836L102.631 5.34692V13.3474C102.631 14.3851 103.197 15.1689 104.215 15.307V15.7702H99.0098V15.307C100.028 15.1708 100.594 14.3869 100.594 13.3492ZM101.477 0.554054C101.67 0.553443 101.862 0.591763 102.041 0.666815C102.22 0.741866 102.382 0.852173 102.519 0.991389C102.656 1.13061 102.764 1.29598 102.838 1.47804C102.912 1.66009 102.95 1.85522 102.95 2.05222C102.95 2.24911 102.912 2.44415 102.838 2.62614C102.765 2.80812 102.656 2.97347 102.52 3.11274C102.383 3.252 102.221 3.36244 102.042 3.4377C101.864 3.51296 101.672 3.55159 101.479 3.55134C101.286 3.55171 101.094 3.51318 100.915 3.43797C100.737 3.36276 100.574 3.25236 100.438 3.11308C100.301 2.9738 100.193 2.80839 100.119 2.62634C100.045 2.4443 100.007 2.24919 100.007 2.05222C100.007 1.85545 100.045 1.66056 100.119 1.47869C100.192 1.29682 100.301 1.13154 100.437 0.992362C100.574 0.853183 100.736 0.742822 100.914 0.667606C101.093 0.592391 101.284 0.55381 101.477 0.554054Z" fill="#002133"/>
<path id="Vector_11" d="M113.155 13.3492V9.19937C113.155 7.65487 112.498 6.80155 111.344 6.80155C110.348 6.80155 109.533 7.4705 108.855 8.53043V13.3483C108.855 14.386 109.421 15.1698 110.213 15.3079V15.7712H105.233V15.3079C106.252 15.1698 106.818 14.3814 106.818 13.3483V8.82969C106.818 7.792 106.252 7.00817 105.233 6.87012V6.40686C106.43 6.12649 107.603 5.7488 108.741 5.27744L108.855 5.346V7.26018H108.968C109.714 5.71568 111.049 5.16162 112.204 5.16162C113.969 5.16162 115.191 6.61439 115.191 8.66663V13.3465C115.191 14.499 115.598 14.9836 116.775 15.306V15.7693H111.797V15.306C112.772 14.9864 113.155 14.5018 113.155 13.3492Z" fill="#002133"/>
<path id="Vector_12" d="M117.838 13.2807C117.838 11.7816 118.88 10.8134 121.143 10.1213L123.542 9.38005V9.14935C123.542 7.53535 122.84 6.75152 121.437 6.75152C120.306 6.75152 119.4 7.23608 118.427 8.11257L118.133 7.78922C118.744 7.00538 120.215 5.16069 122.433 5.16069C124.334 5.16069 125.579 6.52175 125.579 8.66571V13.9913C125.579 14.4981 125.828 14.752 126.144 14.752C126.454 14.7406 126.753 14.6365 127.004 14.4527L127.277 14.7983C126.64 15.5395 125.964 15.9509 125.149 15.9509C124.357 15.9509 123.542 15.5358 123.542 14.1757V13.8977H123.43C122.793 15.3042 121.732 15.9963 120.51 15.9963C118.88 16.0009 117.838 14.802 117.838 13.2807ZM121.23 14.2943C121.976 14.2943 122.882 13.7643 123.538 12.6349V10.2352L121.909 10.7652C120.302 11.2961 119.872 12.0799 119.872 12.8406C119.876 13.7412 120.487 14.2943 121.23 14.2943Z" fill="#002133"/>
<path id="Vector_13" d="M136.102 13.3492V9.19937C136.102 7.65487 135.445 6.80154 134.291 6.80154C133.291 6.80154 132.481 7.47049 131.802 8.53043V13.3483C131.802 14.386 132.368 15.1698 133.16 15.3079V15.7711H128.181V15.3079C129.199 15.1698 129.765 14.3814 129.765 13.3483V8.82969C129.765 7.79199 129.199 7.00817 128.181 6.87012V6.40686C129.378 6.12753 130.551 5.75077 131.688 5.28021L131.802 5.34877V7.26296H131.915C132.662 5.71846 133.998 5.1644 135.152 5.1644C136.917 5.1644 138.138 6.61717 138.138 8.6694V13.3492C138.138 14.5018 138.546 14.9864 139.723 15.3088V15.7721H134.744V15.3088C135.717 14.9864 136.102 14.5018 136.102 13.3492Z" fill="#002133"/>
<path id="Vector_14" d="M145.992 5.1644C147.825 5.1644 149.002 5.87967 149.002 7.10175C149.002 7.29864 148.964 7.49363 148.89 7.67557C148.817 7.85751 148.708 8.0228 148.571 8.16198C148.435 8.30116 148.272 8.41148 148.094 8.48663C147.915 8.56178 147.724 8.60028 147.53 8.59991C146.58 8.59991 146.06 7.83925 146.06 7.10175C146.058 6.92247 146.091 6.74459 146.157 6.5784C146.223 6.41221 146.321 6.261 146.445 6.13353C146.245 6.08072 146.039 6.05731 145.833 6.06404C143.933 6.06404 142.71 7.83925 142.71 10.0481C142.71 12.4922 144.204 14.0321 146.603 14.0321C147.757 14.0321 148.798 13.6856 149.636 13.0407L149.93 13.3631C149.318 14.147 147.915 15.9917 145.517 15.9917C142.665 15.9917 140.651 13.7782 140.651 10.6429C140.651 7.49366 142.846 5.1644 145.992 5.1644Z" fill="#002133"/>
<path id="Vector_15" d="M156.673 14.0413C157.827 14.0413 158.869 13.6948 159.706 13.05L160 13.3724C159.389 14.1562 157.986 16.0009 155.587 16.0009C152.735 16.0009 150.722 13.7875 150.722 10.6521C150.722 7.7466 152.622 5.1644 155.565 5.1644C158.122 5.1644 159.683 7.05542 159.457 9.84516H152.781V9.98321C152.781 12.4042 154.161 14.0413 156.673 14.0413ZM157.401 8.92234C157.469 7.26295 156.79 6.0872 155.454 6.0872C154.165 6.0872 153.169 7.19346 152.875 8.92234H157.401Z" fill="#002133"/>
</g>
<defs>
<clipPath id="clip0_20476_24631">
<rect width="160" height="16" fill="white"/>
</clipPath>
</defs>
</svg>
