<svg width="29" height="26" viewBox="0 0 29 26" fill="none" xmlns="http://www.w3.org/2000/svg">
<path d="M0.000566817 4.61731C-0.00866092 4.06433 0.0948656 3.51518 0.304992 3.0025C0.515119 2.48982 0.827553 2.0241 1.22371 1.63303C1.61986 1.24196 2.09164 0.933508 2.61099 0.726078C3.13034 0.518648 3.68664 0.416463 4.24681 0.425572C4.80704 0.416259 5.36343 0.518326 5.88287 0.725684C6.40232 0.933042 6.87418 1.24145 7.27038 1.63256C7.66657 2.02367 7.979 2.48948 8.18905 3.00225C8.3991 3.51503 8.50249 4.06427 8.49305 4.61731C8.50229 5.17022 8.39876 5.71933 8.18861 6.23193C7.97847 6.74454 7.66601 7.21017 7.26983 7.60112C6.87366 7.99207 6.40186 8.30037 5.88252 8.50764C5.36318 8.71491 4.80691 8.81692 4.24681 8.80761C3.68677 8.81671 3.13059 8.71455 2.61134 8.50721C2.09209 8.29987 1.62038 7.99159 1.22425 7.60067C0.828112 7.20976 0.515653 6.74419 0.305436 6.23168C0.0952193 5.71917 -0.00845987 5.17017 0.000566817 4.61731Z" fill="#5162FF"/>
<path d="M12.04 23.4967V17.1183H12.7819C13.6305 21.8197 15.9569 24.1162 19.8708 24.1162C22.9717 24.1162 25.0013 22.5476 25.0013 19.778C25.0013 16.7902 22.6393 15.7327 19.0207 14.3487C15.6988 13.073 12.2285 11.8339 12.2285 7.61139C12.2285 3.63933 15.2551 0.796509 20.35 0.796509C23.4509 0.796509 25.261 1.63427 27.5859 2.2538V8.44917H26.844C26.0681 4.33211 23.7417 2.2538 20.0503 2.2538C17.3189 2.2538 15.6201 3.6027 15.6201 6.04423C15.6201 8.1943 16.9124 9.25177 20.9732 10.7823C24.85 12.2762 28.6155 13.6251 28.6155 18.2519C28.6155 22.7351 25.1823 25.575 19.9035 25.575C15.7299 25.5735 13.813 24.188 12.04 23.4967Z" fill="#002133"/>
</svg>
