<svg width="525" height="147" viewBox="0 0 525 147" fill="none" xmlns="http://www.w3.org/2000/svg">
<path d="M147.163 73.523C147.255 59.8787 144.029 47.5712 137.855 37.7528C125.275 15.2581 101.221 0.000488281 73.6647 0.000488281C33.1601 0.000488281 0.212674 32.9589 0.166594 73.4769C0.0744332 87.1212 3.30006 99.4287 9.47482 109.247C22.0547 131.742 46.1087 146.999 73.6647 146.999C114.169 146.999 147.117 114.041 147.163 73.523Z" fill="#EAAC00"/>
<path d="M73.6676 133.215C40.7388 133.215 13.9517 106.427 13.9517 73.4983C13.9517 40.5691 40.7388 13.7816 73.6676 13.7816C106.596 13.7816 133.383 40.5691 133.383 73.4983C133.383 106.427 106.596 133.215 73.6676 133.215ZM73.6676 21.5967C45.0508 21.5967 21.7667 44.8812 21.7667 73.4983C21.7667 102.115 45.0508 125.4 73.6676 125.4C102.284 125.4 125.568 102.115 125.568 73.4983C125.568 44.8812 102.284 21.5967 73.6676 21.5967Z" fill="white"/>
<path d="M47.1522 118.536C46.1502 118.536 45.1343 118.472 44.1093 118.343C36.1895 117.346 28.495 112.404 22.9976 104.777C17.0083 96.4655 13.8781 85.6393 13.947 73.4753L21.7611 73.5213C21.6692 90.0572 29.8096 108.671 45.0838 110.593C54.3733 111.756 61.7461 105.149 64.7982 92.9027L74.9427 52.2044C76.9743 44.0491 80.7894 37.5672 85.9651 33.462C90.9385 29.5222 96.9002 27.8581 103.211 28.6488C111.131 29.6464 118.826 34.5883 124.323 42.2149C130.312 50.5265 133.442 61.3527 133.373 73.5167L125.559 73.4707C125.651 56.9349 117.511 38.3211 102.237 36.3995C92.9472 35.2273 85.5744 41.8425 82.5223 54.0893L72.3779 94.7876C70.3462 102.943 66.5311 109.425 61.3554 113.53C57.191 116.831 52.3325 118.532 47.1522 118.532V118.536Z" fill="white"/>
<path d="M57.6914 60.7458L57.1748 68.5438L90.7293 70.7669L91.2458 62.9689L57.6914 60.7458Z" fill="white"/>
<path d="M56.6555 76.3428L56.1389 84.1408L89.6935 86.3639L90.21 78.5659L56.6555 76.3428Z" fill="white"/>
<path d="M197.211 80.3412C197.211 86.2595 198.828 90.9047 202.063 94.2768C205.297 97.6489 209.633 99.335 215.069 99.335C220.437 99.335 224.704 97.6833 227.87 94.3801C231.035 91.008 232.618 86.3283 232.618 80.3412V37.8116H246.45V80.3412C246.45 86.6724 245.177 92.1435 242.631 96.7543C240.154 101.296 236.541 104.806 231.792 107.283C227.113 109.761 221.538 111 215.069 111C208.532 111 202.889 109.761 198.14 107.283C193.392 104.806 189.744 101.296 187.198 96.7543C184.652 92.1435 183.379 86.6724 183.379 80.3412V37.8116H197.211V80.3412Z" fill="black"/>
<path d="M307.134 55.6699C304.587 54.0871 301.972 52.7795 299.288 51.7472C296.673 50.715 294.196 49.9924 291.856 49.5795C289.516 49.0977 287.383 48.8569 285.456 48.8569C282.221 48.8569 279.606 49.4762 277.611 50.715C275.684 51.9537 274.72 53.7774 274.72 56.186C274.72 58.3882 275.408 60.1775 276.785 61.5538C278.23 62.9302 280.088 64.0657 282.359 64.9603C284.699 65.855 287.245 66.7152 289.998 67.541C292.751 68.3668 295.503 69.2959 298.256 70.3281C301.009 71.2916 303.521 72.5647 305.792 74.1475C308.131 75.7304 309.989 77.7605 311.366 80.2379C312.742 82.7154 313.43 85.8122 313.43 89.5284C313.43 94.0016 312.226 97.821 309.817 100.987C307.409 104.152 304.106 106.595 299.908 108.316C295.779 110.036 291.064 110.896 285.765 110.896C281.912 110.896 278.127 110.415 274.411 109.451C270.763 108.419 267.288 107.043 263.985 105.322C260.75 103.602 257.825 101.606 255.21 99.335L260.991 88.0832C263.468 90.3542 266.152 92.3155 269.043 93.9672C271.933 95.55 274.823 96.7887 277.714 97.6833C280.673 98.5092 283.426 98.9221 285.972 98.9221C289.895 98.9221 292.923 98.1651 295.056 96.6511C297.258 95.1371 298.359 93.0037 298.359 90.251C298.359 87.98 297.637 86.1563 296.191 84.7799C294.815 83.4036 292.991 82.2681 290.72 81.3734C288.449 80.41 285.903 79.5842 283.082 78.896C280.329 78.139 277.576 77.2788 274.823 76.3153C272.071 75.283 269.524 74.0099 267.185 72.4959C264.914 70.9131 263.056 68.9174 261.61 66.5087C260.234 64.1001 259.546 61.0377 259.546 57.3215C259.546 53.1236 260.681 49.5106 262.952 46.4826C265.223 43.3858 268.355 41.0116 272.346 39.36C276.406 37.6395 281.155 36.7793 286.591 36.7793C291.409 36.7793 296.088 37.4675 300.63 38.8438C305.241 40.2202 309.267 42.0439 312.708 44.3149L307.134 55.6699Z" fill="black"/>
<path d="M355.54 37.8116C361.045 37.8116 366.069 38.7062 370.611 40.4955C375.222 42.2159 379.179 44.6934 382.482 47.9278C385.854 51.1623 388.469 54.9817 390.327 59.3861C392.185 63.7904 393.114 68.6421 393.114 73.9411C393.114 79.1713 392.185 83.9885 390.327 88.3929C388.469 92.7972 385.854 96.6166 382.482 99.8511C379.11 103.086 375.084 105.597 370.405 107.387C365.725 109.176 360.632 110.071 355.127 110.071H325.501V37.8116H355.54ZM355.849 98.5092C359.153 98.5092 362.215 97.9242 365.037 96.7543C367.858 95.5156 370.301 93.8295 372.366 91.6962C374.499 89.494 376.151 86.9133 377.321 83.9541C378.559 80.9261 379.179 77.6229 379.179 74.0443C379.179 70.3969 378.559 67.0937 377.321 64.1345C376.082 61.1065 374.396 58.4914 372.263 56.2892C370.129 54.0182 367.617 52.2978 364.727 51.1279C361.837 49.958 358.671 49.373 355.23 49.373H339.333V98.5092H355.849Z" fill="black"/>
<path d="M404.308 37.8116H454.167V49.373H418.141V69.5023H450.864V80.9605H418.141V110.071H404.308V37.8116Z" fill="black"/>
<path d="M515.794 57.9409C513.248 55.0505 510.22 52.7795 506.71 51.1279C503.201 49.4074 499.691 48.5472 496.181 48.5472C492.809 48.5472 489.643 49.201 486.684 50.5085C483.794 51.7472 481.213 53.5365 478.942 55.8763C476.74 58.1473 475.02 60.7968 473.781 63.8248C472.542 66.8528 471.923 70.1217 471.923 73.6314C471.923 77.1411 472.542 80.4444 473.781 83.5412C475.02 86.5692 476.74 89.2187 478.942 91.4897C481.213 93.7607 483.794 95.55 486.684 96.8575C489.643 98.1651 492.809 98.8188 496.181 98.8188C499.691 98.8188 503.166 98.0618 506.607 96.5478C510.048 94.965 513.11 92.8317 515.794 90.1478L523.949 98.7156C521.541 101.193 518.753 103.361 515.588 105.219C512.491 107.077 509.222 108.522 505.781 109.554C502.409 110.518 498.968 111 495.459 111C490.16 111 485.205 110.071 480.594 108.213C476.052 106.286 472.06 103.636 468.62 100.264C465.247 96.8919 462.598 92.9349 460.671 88.3929C458.744 83.8509 457.781 78.9992 457.781 73.8379C457.781 68.6077 458.744 63.7904 460.671 59.3861C462.598 54.9129 465.316 50.9902 468.826 47.6182C472.336 44.2461 476.362 41.631 480.904 39.7729C485.514 37.9148 490.538 36.9858 495.975 36.9858C499.484 36.9858 502.891 37.4675 506.194 38.4309C509.566 39.3256 512.766 40.6331 515.794 42.3536C518.822 44.0052 521.506 46.0353 523.846 48.444L515.794 57.9409Z" fill="black"/>
</svg>
