<svg width="20" height="20" viewBox="0 0 20 20" fill="#C30C38" xmlns="http://www.w3.org/2000/svg">
<path d="M10.617 3.27689L17.4045 15.1688C17.4671 15.2784 17.5 15.4027 17.5 15.5292C17.5 15.6557 17.4671 15.78 17.4045 15.8895C17.342 15.9991 17.2521 16.0901 17.1438 16.1533C17.0354 16.2166 16.9126 16.2499 16.7875 16.2499H3.2125C3.08743 16.2499 2.96456 16.2166 2.85625 16.1533C2.74794 16.0901 2.65799 15.9991 2.59546 15.8895C2.53292 15.78 2.5 15.6557 2.5 15.5292C2.5 15.4027 2.53292 15.2784 2.59546 15.1688L9.38295 3.27689C9.44549 3.16734 9.53544 3.07636 9.64375 3.01311C9.75207 2.94986 9.87493 2.91656 10 2.91656C10.1251 2.91656 10.2479 2.94986 10.3562 3.01311C10.4646 3.07636 10.5545 3.16734 10.617 3.27689ZM9.28748 12.6463V14.0877H10.7125V12.6463H9.28748ZM9.28748 7.60123V11.2048H10.7125V7.60123H9.28748Z"/>
</svg>
