<svg width="16" height="16" viewBox="0 0 16 16" fill="none" xmlns="http://www.w3.org/2000/svg">
<path d="M4.99961 3.2V2H10.9996V3.2H12.8038C13.1326 3.2 13.3996 3.467 13.3996 3.7958V13.4042C13.3995 13.5622 13.3366 13.7136 13.2249 13.8253C13.1132 13.937 12.9618 13.9998 12.8038 14H3.19541C3.03744 13.9998 2.88599 13.937 2.77429 13.8253C2.66259 13.7136 2.59977 13.5622 2.59961 13.4042V3.7958C2.59961 3.467 2.86661 3.2 3.19541 3.2H4.99961ZM4.99961 4.4H3.79961V12.8H12.1996V4.4H10.9996V5.6H4.99961V4.4ZM6.19961 3.2V4.4H9.79961V3.2H6.19961Z" fill="#5162FF"/>
</svg>
