<svg width="32" height="32" viewBox="0 0 32 32" fill="none" xmlns="http://www.w3.org/2000/svg">
<path fill-rule="evenodd" clip-rule="evenodd" d="M18.382 5.07346C17.7755 2.57545 14.2229 2.57545 13.6165 5.07346C13.2247 6.68714 11.3759 7.45293 9.95788 6.58889C7.76271 5.25135 5.25062 7.76344 6.58816 9.95861C7.4522 11.3767 6.68641 13.2254 5.07272 13.6172C2.57472 14.2236 2.57472 17.7763 5.07273 18.3827C6.68641 18.7745 7.4522 20.6232 6.58816 22.0413C5.25062 24.2365 7.76271 26.7486 9.95788 25.411C11.3759 24.547 13.2247 25.3128 13.6165 26.9264C14.2229 29.4245 17.7755 29.4245 18.382 26.9264C18.7737 25.3128 20.6225 24.547 22.0406 25.411C24.2357 26.7486 26.7478 24.2365 25.4103 22.0413C24.5462 20.6232 25.312 18.7745 26.9257 18.3827C29.4237 17.7763 29.4237 14.2236 26.9257 13.6172C25.312 13.2254 24.5462 11.3767 25.4103 9.95861C26.7478 7.76344 24.2357 5.25135 22.0406 6.58889C20.6225 7.45293 18.7737 6.68714 18.382 5.07346ZM15.9992 20.8C18.6502 20.8 20.7992 18.6509 20.7992 16C20.7992 13.349 18.6502 11.2 15.9992 11.2C13.3483 11.2 11.1992 13.349 11.1992 16C11.1992 18.6509 13.3483 20.8 15.9992 20.8Z" fill="#334155"/>
</svg>
