<svg width="20" height="20" viewBox="0 0 20 20" fill="none" xmlns="http://www.w3.org/2000/svg">
<g id="Frame 138005">
<g id="Group">
<g id="Group_2">
<path id="Vector" d="M9.13318 14.3161C9.38088 14.3161 9.60381 14.5143 9.60381 14.7868C9.60381 15.0345 9.40565 15.2574 9.13318 15.2574C8.88548 15.2574 8.66255 15.0592 8.66255 14.7868C8.66255 14.5143 8.88548 14.3161 9.13318 14.3161ZM16.4156 11.4428C16.1679 11.4428 15.945 11.2446 15.945 10.9721C15.945 10.7244 16.1432 10.5015 16.4156 10.5015C16.6633 10.5015 16.8863 10.6997 16.8863 10.9721C16.8863 11.2199 16.6633 11.4428 16.4156 11.4428ZM16.4156 9.53548C15.623 9.53548 14.979 10.1795 14.979 10.9721C14.979 11.1208 15.0037 11.2694 15.0533 11.418L10.3222 13.9446C10.0497 13.5483 9.60381 13.3253 9.13318 13.3253C8.58823 13.3253 8.09283 13.6473 7.84513 14.118L3.58465 11.8886C3.13878 11.6409 2.792 10.9226 2.84154 10.229C2.86631 9.88226 2.99016 9.60979 3.16355 9.51071C3.28741 9.4364 3.41126 9.46117 3.58465 9.53548L3.60942 9.56025C4.74885 10.1547 8.43961 12.0868 8.58823 12.1611C8.83594 12.2602 8.95979 12.3097 9.38088 12.1116L17.0101 8.14834C17.134 8.0988 17.2578 7.99972 17.2578 7.82633C17.2578 7.6034 17.0349 7.50432 17.0349 7.50432C16.589 7.30615 15.9202 6.98414 15.2762 6.6869C13.8891 6.04287 12.3038 5.29977 11.6102 4.92821C11.0157 4.6062 10.5203 4.87867 10.446 4.92821L10.2726 5.00252C7.12679 6.58782 2.96539 8.64375 2.71769 8.79237C2.2966 9.04007 2.02412 9.56025 1.99935 10.2043C1.94981 11.2199 2.46999 12.285 3.21309 12.6565L7.72128 14.9849C7.82036 15.6785 8.43961 16.2234 9.13318 16.2234C9.92583 16.2234 10.5451 15.6042 10.5699 14.8115L15.5239 12.1363C15.7716 12.3345 16.0936 12.4336 16.4156 12.4336C17.2083 12.4336 17.8523 11.7896 17.8523 10.9969C17.8523 10.1795 17.2083 9.53548 16.4156 9.53548Z" fill="#002133"/>
</g>
</g>
</g>
</svg>
