<svg width="16" height="16" viewBox="0 0 16 16" fill="none" xmlns="http://www.w3.org/2000/svg">
<path fill-rule="evenodd" clip-rule="evenodd" d="M3.26646 7.20001H4.823C4.89437 5.96289 5.12992 4.82326 5.49325 3.90583C4.33411 4.61708 3.5002 5.80679 3.26646 7.20001ZM8.0001 1.60001C4.46548 1.60001 1.6001 4.46538 1.6001 8.00001C1.6001 11.5346 4.46548 14.4 8.0001 14.4C11.5347 14.4 14.4001 11.5346 14.4001 8.00001C14.4001 4.46538 11.5347 1.60001 8.0001 1.60001ZM8.0001 3.20001C7.93926 3.20001 7.81439 3.22539 7.62786 3.40948C7.43789 3.59697 7.23011 3.90793 7.03836 4.35534C6.72741 5.08089 6.50002 6.06847 6.42599 7.20001H9.5742C9.50017 6.06847 9.27279 5.08089 8.96184 4.35534C8.77009 3.90793 8.56231 3.59697 8.37234 3.40948C8.1858 3.22539 8.06094 3.20001 8.0001 3.20001ZM11.1772 7.20001C11.1058 5.96289 10.8703 4.82326 10.5069 3.90583C11.6661 4.61708 12.5 5.80679 12.7337 7.20001H11.1772ZM9.5742 8.80001H6.42599C6.50002 9.93154 6.72741 10.9191 7.03836 11.6447C7.23011 12.0921 7.43789 12.403 7.62786 12.5905C7.81439 12.7746 7.93926 12.8 8.0001 12.8C8.06094 12.8 8.1858 12.7746 8.37234 12.5905C8.56231 12.403 8.77009 12.0921 8.96184 11.6447C9.27279 10.9191 9.50017 9.93154 9.5742 8.80001ZM10.5069 12.0942C10.8703 11.1767 11.1058 10.0371 11.1772 8.80001H12.7337C12.5 10.1932 11.6661 11.3829 10.5069 12.0942ZM5.49325 12.0942C5.12992 11.1767 4.89437 10.0371 4.823 8.80001H3.26646C3.5002 10.1932 4.33411 11.3829 5.49325 12.0942Z" fill="#94A3B8"/>
</svg>
