<svg width="32" height="32" viewBox="0 0 32 32" fill="none" xmlns="http://www.w3.org/2000/svg">
<path fill-rule="evenodd" clip-rule="evenodd" d="M14.1247 8.27454C11.6253 5.77519 7.57309 5.77519 5.07374 8.27454C2.57438 10.7739 2.57438 14.8262 5.07374 17.3255L5.74823 18H13.1396L14.5257 13.8419L15.083 12.1698L15.4867 13.8855L17.1704 21.0412L18.5528 18.2764L18.691 18H19H26.2502L26.9247 17.3255C29.4241 14.8262 29.4241 10.7739 26.9247 8.27454C24.4254 5.77519 20.3731 5.77519 17.8737 8.27454L15.9992 10.1491L14.1247 8.27454ZM25.2502 19H19.309L17.4472 22.7236L16.8296 23.9588L16.5133 22.6145L14.917 15.8302L13.9743 18.6581L13.8604 19H13.5H6.74823L15.9992 28.251L25.2502 19Z" fill="#002133"/>
</svg>
