<svg width="16" height="16" viewBox="0 0 16 16" fill="none" xmlns="http://www.w3.org/2000/svg">
<path fill-rule="evenodd" clip-rule="evenodd" d="M14.3996 8.00001C14.3996 11.5346 11.5342 14.4 7.99961 14.4C4.46499 14.4 1.59961 11.5346 1.59961 8.00001C1.59961 4.46538 4.46499 1.60001 7.99961 1.60001C11.5342 1.60001 14.3996 4.46538 14.3996 8.00001ZM8.79961 4.80001C8.79961 5.24183 8.44144 5.60001 7.99961 5.60001C7.55778 5.60001 7.19961 5.24183 7.19961 4.80001C7.19961 4.35818 7.55778 4.00001 7.99961 4.00001C8.44144 4.00001 8.79961 4.35818 8.79961 4.80001ZM7.19961 7.20001C6.75778 7.20001 6.39961 7.55818 6.39961 8.00001C6.39961 8.44183 6.75778 8.80001 7.19961 8.80001V11.2C7.19961 11.6418 7.55778 12 7.99961 12H8.79961C9.24144 12 9.59961 11.6418 9.59961 11.2C9.59961 10.7582 9.24144 10.4 8.79961 10.4V8.00001C8.79961 7.55818 8.44144 7.20001 7.99961 7.20001H7.19961Z" fill="#64748B"/>
</svg>
