<svg width="16" height="16" viewBox="0 0 16 16" fill="none" xmlns="http://www.w3.org/2000/svg">
<path d="M8 14C4.6862 14 2 11.3138 2 8C2 4.6862 4.6862 2 8 2C11.3138 2 14 4.6862 14 8C14 11.3138 11.3138 14 8 14ZM8 12.8C9.27304 12.8 10.4939 12.2943 11.3941 11.3941C12.2943 10.4939 12.8 9.27304 12.8 8C12.8 6.72696 12.2943 5.50606 11.3941 4.60589C10.4939 3.70571 9.27304 3.2 8 3.2C6.72696 3.2 5.50606 3.70571 4.60589 4.60589C3.70571 5.50606 3.2 6.72696 3.2 8C3.2 9.27304 3.70571 10.4939 4.60589 11.3941C5.50606 12.2943 6.72696 12.8 8 12.8ZM7.4 9.8H8.6V11H7.4V9.8ZM8.6 8.813V9.2H7.4V8.3C7.4 8.14087 7.46321 7.98826 7.57574 7.87574C7.68826 7.76321 7.84087 7.7 8 7.7C8.17045 7.69999 8.33739 7.65158 8.4814 7.5604C8.6254 7.46922 8.74056 7.33902 8.81346 7.18495C8.88637 7.03088 8.91402 6.85928 8.89321 6.69011C8.8724 6.52093 8.80397 6.36115 8.6959 6.22935C8.58783 6.09754 8.44455 5.99914 8.28273 5.94558C8.12092 5.89203 7.94722 5.88552 7.78186 5.92682C7.61649 5.96813 7.46625 6.05554 7.34862 6.17889C7.23099 6.30224 7.15081 6.45646 7.1174 6.6236L5.9402 6.3878C6.01318 6.02305 6.18171 5.68422 6.42855 5.40595C6.6754 5.12768 6.99171 4.91995 7.34515 4.80399C7.6986 4.68803 8.07649 4.66801 8.44021 4.74597C8.80393 4.82393 9.14042 4.99707 9.41529 5.24769C9.69016 5.49832 9.89355 5.81744 10.0047 6.17244C10.1158 6.52743 10.1306 6.90557 10.0477 7.26818C9.9648 7.6308 9.78707 7.9649 9.53271 8.23632C9.27835 8.50774 8.95648 8.70675 8.6 8.813Z" fill="#94A3B8"/>
</svg>
