<svg width="20" height="20" viewBox="0 0 20 20" fill="none" xmlns="http://www.w3.org/2000/svg">
<path fill-rule="evenodd" clip-rule="evenodd" d="M3.99805 2C4.55033 2 4.99805 2.44772 4.99805 3V5.10126C6.26814 3.80489 8.03857 3 9.99805 3C13.0475 3 15.639 4.94932 16.5995 7.66675C16.7835 8.18747 16.5106 8.75879 15.9899 8.94284C15.4692 9.12689 14.8978 8.85396 14.7138 8.33325C14.0269 6.38991 12.1735 5 9.99805 5C8.36311 5 6.91008 5.78502 5.9974 7H8.99805C9.55033 7 9.99805 7.44772 9.99805 8C9.99805 8.55229 9.55033 9 8.99805 9H3.99805C3.44576 9 2.99805 8.55229 2.99805 8V3C2.99805 2.44772 3.44576 2 3.99805 2ZM4.00621 11.0572C4.52693 10.8731 5.09825 11.146 5.2823 11.6668C5.96917 13.6101 7.82258 15 9.99805 15C11.633 15 13.086 14.215 13.9987 13L10.998 13C10.4458 13 9.99805 12.5523 9.99805 12C9.99805 11.4477 10.4458 11 10.998 11H15.998C16.2633 11 16.5176 11.1054 16.7052 11.2929C16.8927 11.4804 16.998 11.7348 16.998 12V17C16.998 17.5523 16.5503 18 15.998 18C15.4458 18 14.998 17.5523 14.998 17V14.8987C13.728 16.1951 11.9575 17 9.99805 17C6.94864 17 4.35709 15.0507 3.39662 12.3332C3.21257 11.8125 3.4855 11.2412 4.00621 11.0572Z" fill="#1E293B"/>
</svg>
