<svg width="160" height="16" viewBox="0 0 160 16" fill="none" xmlns="http://www.w3.org/2000/svg">
<path d="M0.000391551 2.7428C-0.00560845 2.3928 0.0573916 2.0458 0.186392 1.7218C0.315392 1.3978 0.506392 1.1018 0.749392 0.855805C0.989569 0.60848 1.27794 0.413066 1.59667 0.281654C1.91539 0.150242 2.25769 0.0856266 2.60239 0.0918049C2.94639 0.0858049 3.28739 0.149805 3.60539 0.281805C3.92439 0.411805 4.21339 0.607805 4.45539 0.854805C4.69839 1.1028 4.89039 1.3968 5.01939 1.7218C5.14839 2.0468 5.21139 2.3928 5.20539 2.7428C5.21139 3.0928 5.14739 3.4398 5.01839 3.7648C4.89039 4.0888 4.69839 4.3838 4.45539 4.63081C4.21289 4.87632 3.92394 5.07111 3.60539 5.2038C3.28739 5.33481 2.94539 5.39981 2.60239 5.39381C2.25888 5.39999 1.91779 5.33532 1.60039 5.2038C1.28184 5.07111 0.992892 4.87632 0.750392 4.63081C0.506337 4.38279 0.314549 4.0883 0.186392 3.7648C0.0588249 3.43939 -0.00434406 3.0923 0.000391551 2.7428Z" fill="#5162FF"/>
<path d="M7.37646 14.687V10.652H7.83146C8.35146 13.626 9.77747 15.079 12.1775 15.079C14.0775 15.079 15.3215 14.087 15.3215 12.335C15.3215 10.445 13.8745 9.775 11.6555 8.9C9.61946 8.093 7.49247 7.31 7.49247 4.638C7.49247 2.125 9.34746 0.328 12.4705 0.328C14.3715 0.328 15.4805 0.857 16.9065 1.248V5.168H16.4515C15.9755 2.564 14.5495 1.248 12.2875 1.248C10.6125 1.248 9.57146 2.102 9.57146 3.647C9.57146 5.007 10.3635 5.676 12.8525 6.644C15.2295 7.589 17.5375 8.442 17.5375 11.369C17.5375 14.205 15.4325 16.002 12.1975 16.002C9.63846 16.001 8.46246 15.124 7.37646 14.687ZM24.8495 14.041C26.0025 14.041 27.0435 13.695 27.8805 13.05L28.1745 13.372C27.5645 14.156 26.1615 16.001 23.7625 16.001C20.9105 16.001 18.8965 13.787 18.8965 10.652C18.8965 7.747 20.7965 5.164 23.7395 5.164C26.2965 5.164 27.8585 7.055 27.6315 9.845H20.9555V9.983C20.9555 12.404 22.3365 14.041 24.8495 14.041ZM25.5755 8.922C25.6435 7.262 24.9645 6.087 23.6295 6.087C22.3395 6.087 21.3435 7.193 21.0495 8.922H25.5755ZM34.4435 5.164C36.2765 5.164 37.4535 5.88 37.4535 7.102C37.4536 7.49785 37.2994 7.87814 37.0235 8.162C36.8875 8.29991 36.7256 8.40961 36.5472 8.48477C36.3687 8.55994 36.1771 8.5991 35.9835 8.6C35.0315 8.6 34.5115 7.84 34.5115 7.102C34.5084 6.74143 34.6466 6.39398 34.8965 6.134C34.6972 6.08148 34.4914 6.05857 34.2855 6.066C32.3845 6.066 31.1625 7.841 31.1625 10.05C31.1625 12.494 32.6565 14.034 35.0545 14.034C36.2085 14.034 37.2495 13.687 38.0875 13.043L38.3815 13.365C37.7705 14.149 36.3675 15.993 33.9685 15.993C31.1175 15.993 29.1025 13.78 29.1025 10.645C29.1015 7.494 31.2985 5.165 34.4425 5.165M40.4415 12.497V8.83C40.4415 7.792 39.8755 7.008 38.8565 6.87V6.407C40.0535 6.127 41.2265 5.749 42.3645 5.277L42.4775 5.346V11.963C42.4775 13.508 43.1345 14.361 44.2875 14.361C45.2885 14.361 46.0985 13.692 46.7775 12.632V8.829C46.7775 7.791 46.2115 7.007 45.1935 6.869V6.406C46.3913 6.12541 47.5642 5.74749 48.7005 5.276L48.8145 5.346V12.354C48.8145 13.392 49.3805 14.176 50.3985 14.314V14.777C49.2015 15.057 48.0285 15.435 46.8915 15.907L46.7775 15.837V13.9H46.6645C45.9185 15.446 44.5825 16 43.4275 16C41.6625 16 40.4415 14.548 40.4415 12.497ZM51.5295 15.309C52.5495 15.171 53.1145 14.382 53.1145 13.349V8.831C53.1145 7.793 52.5485 7.009 51.5305 6.871V6.408C52.7275 6.128 53.9005 5.75 55.0385 5.278L55.1505 5.347V13.347C55.1505 14.385 55.7175 15.169 56.9615 15.307V15.77H51.5305L51.5295 15.309ZM56.1685 6.664C56.168 6.26781 56.3223 5.88711 56.5985 5.603C56.7346 5.46467 56.8967 5.35465 57.0756 5.27931C57.2544 5.20396 57.4464 5.16477 57.6405 5.164C57.8347 5.16295 58.0272 5.20122 58.2062 5.27649C58.3853 5.35176 58.5473 5.46249 58.6825 5.602C58.9604 5.88491 59.115 6.26639 59.1125 6.663C59.1131 7.05905 58.9592 7.43973 58.6835 7.724C58.5475 7.86191 58.3856 7.9716 58.2072 8.04677C58.0287 8.12194 57.8371 8.1611 57.6435 8.162C57.4491 8.16331 57.2565 8.12527 57.0773 8.05017C56.898 7.97507 56.7358 7.86445 56.6005 7.725C56.3221 7.44225 56.1662 7.06075 56.1685 6.664ZM65.8565 14.041C67.0105 14.041 68.0505 13.695 68.8885 13.05L69.1825 13.372C68.5725 14.156 67.1685 16.001 64.7695 16.001C61.9185 16.001 59.9035 13.787 59.9035 10.652C59.9035 7.747 61.8055 5.164 64.7465 5.164C67.3045 5.164 68.8665 7.055 68.6395 9.845H61.9635V9.983C61.9635 12.404 63.3435 14.041 65.8565 14.041ZM66.5835 8.922C66.6525 7.262 65.9735 6.087 64.6375 6.087C63.3475 6.087 62.3525 7.193 62.0575 8.922H66.5835ZM70.3365 10.976C70.3365 7.634 72.6225 5.166 75.4505 5.166C76.2768 5.15505 77.088 5.38811 77.7825 5.836V3.552C77.7825 2.514 77.2155 1.731 76.1985 1.592V1.128C77.3955 0.85 78.5685 0.47 79.7065 0L79.8185 0.07V12.358C79.8185 13.396 80.3845 14.18 81.4035 14.318V14.781C80.2065 15.061 79.0335 15.439 77.8955 15.911L77.7825 15.841V13.904H77.6665C77.0295 15.334 75.7195 16.003 74.4305 16.003C72.2375 16.002 70.3365 14.019 70.3365 10.977M75.2255 14.367C76.1305 14.367 77.0805 13.86 77.7825 12.637V6.8C77.2615 6.336 76.4245 6.085 75.7005 6.085C74.0485 6.085 72.3505 7.515 72.3505 10.42C72.3505 12.934 73.6185 14.364 75.2255 14.364V14.367ZM88.4185 12.889V3.439C88.4185 2.286 87.5805 1.386 86.3815 1.248V0.557H97.9235V5.167H97.4685C97.1745 2.701 96.2685 1.479 94.3905 1.479H90.6805V7.842L93.4205 7.819C94.9585 7.819 95.8415 7.012 95.9545 5.514H96.4085V11.047H95.9545C95.8415 9.547 94.9545 8.741 93.4195 8.741L90.6815 8.764V12.661C90.6815 14.021 91.5185 15.012 92.9445 15.059V15.773H86.3815V15.053C87.5795 14.94 88.4185 14.018 88.4185 12.889ZM100.593 13.35V8.83C100.593 7.793 100.027 7.01 99.0095 6.871V6.408C100.206 6.128 101.379 5.75 102.517 5.278L102.63 5.347V13.347C102.63 14.385 103.196 15.169 104.214 15.307V15.77H99.0095V15.307C100.027 15.171 100.593 14.387 100.593 13.349M101.476 0.553C101.671 0.552394 101.863 0.59076 102.042 0.665826C102.221 0.740891 102.383 0.851128 102.518 0.99C102.794 1.27429 102.948 1.65451 102.948 2.0503C102.948 2.44609 102.795 2.82645 102.519 3.111C102.384 3.24939 102.222 3.35952 102.043 3.43504C101.864 3.51056 101.672 3.54997 101.478 3.551C101.284 3.55121 101.092 3.51247 100.913 3.43706C100.735 3.36165 100.573 3.25111 100.437 3.112C100.162 2.82776 100.009 2.44775 100.008 2.0522C100.008 1.65665 100.162 1.2765 100.436 0.992C100.572 0.853051 100.733 0.74268 100.912 0.667439C101.091 0.592198 101.283 0.553622 101.476 0.554M113.154 13.35V9.2C113.154 7.655 112.497 6.802 111.343 6.802C110.347 6.802 109.532 7.471 108.854 8.53V13.348C108.854 14.386 109.42 15.17 110.212 15.308V15.771H105.232V15.308C106.251 15.17 106.817 14.381 106.817 13.348V8.83C106.817 7.792 106.251 7.008 105.232 6.87V6.407C106.429 6.127 107.602 5.749 108.74 5.277L108.854 5.346V7.26H108.967C109.713 5.716 111.048 5.162 112.203 5.162C113.968 5.162 115.19 6.614 115.19 8.667V13.347C115.19 14.499 115.597 14.984 116.774 15.306V15.769H111.796V15.306C112.771 14.986 113.154 14.502 113.154 13.349M117.837 13.28C117.837 11.782 118.879 10.813 121.142 10.121L123.541 9.381V9.149C123.541 7.535 122.839 6.752 121.436 6.752C120.305 6.752 119.399 7.236 118.426 8.112L118.132 7.789C118.743 7.005 120.214 5.161 122.432 5.161C124.333 5.161 125.578 6.521 125.578 8.666V13.991C125.578 14.498 125.827 14.752 126.143 14.752C126.453 14.741 126.752 14.636 127.003 14.452L127.276 14.798C126.639 15.54 125.963 15.951 125.148 15.951C124.356 15.951 123.541 15.536 123.541 14.176V13.898H123.429C122.792 15.304 121.731 15.996 120.509 15.996C118.879 16.001 117.837 14.802 117.837 13.281M121.229 14.295C121.975 14.295 122.881 13.765 123.537 12.635V10.236L121.908 10.766C120.301 11.297 119.871 12.081 119.871 12.842C119.875 13.742 120.486 14.295 121.229 14.295ZM136.101 13.35V9.2C136.101 7.655 135.444 6.802 134.29 6.802C133.29 6.802 132.48 7.47 131.801 8.53V13.348C131.801 14.386 132.367 15.17 133.159 15.308V15.771H128.18V15.308C129.198 15.17 129.764 14.381 129.764 13.348V8.83C129.764 7.792 129.198 7.008 128.18 6.87V6.407C129.377 6.127 130.55 5.751 131.687 5.28L131.801 5.349V7.263H131.914C132.661 5.718 133.997 5.164 135.151 5.164C136.916 5.164 138.137 6.617 138.137 8.669V13.349C138.137 14.502 138.545 14.986 139.722 15.309V15.772H134.743V15.309C135.716 14.986 136.101 14.502 136.101 13.349M145.991 5.164C147.824 5.164 149.001 5.88 149.001 7.102C149.001 7.49799 148.847 7.8783 148.57 8.162C148.435 8.30048 148.273 8.41053 148.094 8.48573C147.915 8.56094 147.723 8.59978 147.529 8.6C146.579 8.6 146.059 7.84 146.059 7.102C146.056 6.74143 146.195 6.39398 146.444 6.134C146.245 6.08071 146.039 6.05712 145.832 6.064C143.932 6.064 142.709 7.839 142.709 10.048C142.709 12.492 144.203 14.032 146.602 14.032C147.756 14.032 148.797 13.686 149.635 13.041L149.929 13.363C149.317 14.147 147.914 15.992 145.516 15.992C142.664 15.992 140.65 13.778 140.65 10.642C140.65 7.494 142.845 5.164 145.991 5.164ZM156.672 14.041C157.826 14.041 158.868 13.695 159.705 13.05L159.999 13.372C159.388 14.156 157.985 16.001 155.586 16.001C152.734 16.001 150.721 13.787 150.721 10.652C150.721 7.747 152.621 5.164 155.564 5.164C158.121 5.164 159.682 7.055 159.456 9.845H152.78V9.983C152.78 12.404 154.16 14.041 156.672 14.041ZM157.4 8.922C157.468 7.262 156.789 6.087 155.453 6.087C154.164 6.087 153.168 7.193 152.874 8.922H157.4Z" fill="#002133"/>
</svg>
