<svg width="20" height="20" viewBox="0 0 20 20" fill="none" xmlns="http://www.w3.org/2000/svg">
<g id="Logo/ Bitcoin">
<g id="Group 137589">
<g id="Group 137590">
<path id="Subtract" fill-rule="evenodd" clip-rule="evenodd" d="M17.7607 11.9346C16.6918 16.2226 12.3474 18.8293 8.0655 17.7603C3.77737 16.6914 1.17074 12.3472 2.23968 8.06537C3.30856 3.77737 7.64668 1.17074 11.9348 2.23968C16.2167 3.30231 18.8296 7.64656 17.7607 11.9346ZM4.00018 7.33569C3.99728 7.15949 4.02984 6.98452 4.09593 6.82116C4.16203 6.6578 4.2603 6.50941 4.38491 6.3848C4.50951 6.26019 4.65791 6.16191 4.82127 6.09582C4.98463 6.02972 5.15961 5.99716 5.33581 6.00006C5.51202 5.9971 5.68703 6.02962 5.85042 6.09569C6.01381 6.16176 6.16223 6.26003 6.28685 6.38465C6.41147 6.50927 6.50974 6.65769 6.57581 6.82108C6.64188 6.98446 6.6744 7.15947 6.67143 7.33569C6.67434 7.51186 6.64177 7.68683 6.57567 7.85016C6.50957 8.01349 6.41129 8.16186 6.28668 8.28643C6.16206 8.411 6.01366 8.50923 5.85031 8.57527C5.68695 8.64132 5.51198 8.67382 5.33581 8.67085C5.15965 8.67376 4.98471 8.6412 4.82138 8.57514C4.65805 8.50907 4.50968 8.41084 4.38508 8.28628C4.26048 8.16173 4.16219 8.01338 4.09607 7.85008C4.02995 7.68678 3.99734 7.51185 4.00018 7.33569ZM7.78583 11.3187V13.3511C7.90028 13.3963 8.01667 13.4509 8.14074 13.509C8.62121 13.734 9.2167 14.013 10.2597 14.0133C11.9201 14.0133 13 13.1085 13 11.68C13 10.2369 11.8652 9.79457 10.6735 9.33007C10.6477 9.32003 10.622 9.30998 10.5962 9.2999C9.31886 8.81223 8.91239 8.47528 8.91239 7.7902C8.91239 7.01225 9.44673 6.58245 10.3059 6.58245C11.4674 6.58245 12.1987 7.24466 12.4428 8.55649H12.6761V6.58245C12.5051 6.53629 12.3429 6.48634 12.1823 6.43689C11.6561 6.27481 11.1474 6.1181 10.3997 6.1181C8.79712 6.1181 7.8451 7.02392 7.8451 8.28955C7.8451 9.60643 8.89083 10.0126 9.91499 10.4104C9.93719 10.419 9.95938 10.4276 9.98155 10.4363C11.1198 10.8773 11.8632 11.2142 11.8632 12.1662C11.8632 13.0487 11.2243 13.5485 10.249 13.5485C9.01786 13.5485 8.28611 12.8168 8.01917 11.3187H7.78583Z" fill="#002133"/>
</g>
</g>
</g>
</svg>
