<svg width="24" height="24" viewBox="0 0 24 24" fill="none" xmlns="http://www.w3.org/2000/svg">
<g>
<path fill-rule="evenodd" clip-rule="evenodd" d="M10.8016 2.3999C10.347 2.3999 9.93152 2.65671 9.72825 3.06325L8.85992 4.7999H4.80156C4.13882 4.7999 3.60156 5.33716 3.60156 5.9999C3.60156 6.66264 4.13882 7.1999 4.80156 7.1999L4.80156 19.1999C4.80156 20.5254 5.87608 21.5999 7.20156 21.5999H16.8016C18.127 21.5999 19.2016 20.5254 19.2016 19.1999V7.1999C19.8643 7.1999 20.4016 6.66264 20.4016 5.9999C20.4016 5.33716 19.8643 4.7999 19.2016 4.7999H15.1432L14.2749 3.06325C14.0716 2.65671 13.6561 2.3999 13.2016 2.3999H10.8016ZM8.40156 9.5999C8.40156 8.93716 8.93882 8.3999 9.60156 8.3999C10.2643 8.3999 10.8016 8.93716 10.8016 9.5999V16.7999C10.8016 17.4626 10.2643 17.9999 9.60156 17.9999C8.93882 17.9999 8.40156 17.4626 8.40156 16.7999V9.5999ZM14.4016 8.3999C13.7388 8.3999 13.2016 8.93716 13.2016 9.5999V16.7999C13.2016 17.4626 13.7388 17.9999 14.4016 17.9999C15.0643 17.9999 15.6016 17.4626 15.6016 16.7999V9.5999C15.6016 8.93716 15.0643 8.3999 14.4016 8.3999Z" fill="currentColor"/>
</g>
</svg>
