<svg width="16" height="16" viewBox="0 0 16 16" fill="none" xmlns="http://www.w3.org/2000/svg">
<g id="Icon/Solid/trending-up">
<path id="Icon" fill-rule="evenodd" clip-rule="evenodd" d="M9.59961 5.6C9.15778 5.6 8.79961 5.24183 8.79961 4.8C8.79961 4.35817 9.15778 4 9.59961 4H13.5996C14.0414 4 14.3996 4.35817 14.3996 4.8V8.8C14.3996 9.24183 14.0414 9.6 13.5996 9.6C13.1578 9.6 12.7996 9.24183 12.7996 8.8V6.73137L9.3653 10.1657C9.05288 10.4781 8.54634 10.4781 8.23392 10.1657L6.39961 8.33137L2.96529 11.7657C2.65288 12.0781 2.14634 12.0781 1.83392 11.7657C1.5215 11.4533 1.5215 10.9467 1.83392 10.6343L5.83392 6.63431C6.14634 6.3219 6.65288 6.3219 6.9653 6.63431L8.79961 8.46863L11.6682 5.6H9.59961Z" fill="#5162FF"/>
</g>
</svg>
