<svg width="20" height="20" viewBox="0 0 20 20" fill="none" xmlns="http://www.w3.org/2000/svg">
<path d="M16.6663 9.99999V6.66666H4.99967C4.55765 6.66666 4.13372 6.49107 3.82116 6.17851C3.5086 5.86595 3.33301 5.44202 3.33301 4.99999C3.33301 4.08333 4.08301 3.33333 4.99967 3.33333H14.9997V6.66666" stroke="#1E293B" stroke-width="0.833333" stroke-linecap="round" stroke-linejoin="round"/>
<path d="M3.33301 5V15C3.33301 15.9167 4.08301 16.6667 4.99967 16.6667H16.6663V13.3333" stroke="#1E293B" stroke-width="0.833333" stroke-linecap="round" stroke-linejoin="round"/>
<path d="M14.9997 10C14.5576 10 14.1337 10.1756 13.8212 10.4882C13.5086 10.8007 13.333 11.2246 13.333 11.6667C13.333 12.5833 14.083 13.3333 14.9997 13.3333H18.333V10H14.9997Z" stroke="#1E293B" stroke-width="0.833333" stroke-linecap="round" stroke-linejoin="round"/>
</svg>
