<svg width="56" height="56" viewBox="0 0 56 56" fill="none" xmlns="http://www.w3.org/2000/svg">
<g filter="url(#filter0_d_19179_68830)">
<path d="M26.046 46.8837C37.9137 46.8837 47.5344 36.68 47.5344 24.093C47.5344 11.506 37.9137 1.30231 26.046 1.30231C14.1783 1.30231 4.55762 11.506 4.55762 24.093C4.55762 36.68 14.1783 46.8837 26.046 46.8837Z" fill="#0090FF" stroke="#0090FF" stroke-width="0.8" stroke-miterlimit="10"/>
<path d="M30.096 46.8862C41.9752 46.8862 51.6051 36.6819 51.6051 24.0943C51.6051 11.5066 41.9752 1.30231 30.096 1.30231C18.2169 1.30231 8.58691 11.5066 8.58691 24.0943C8.58691 36.6819 18.2169 46.8862 30.096 46.8862Z" fill="#F1F5F9" stroke="#0090FF" stroke-width="0.8"/>
<path d="M30.1448 41.1644C39.2107 41.1644 46.5601 33.5196 46.5601 24.0892C46.5601 14.6588 39.2107 7.01398 30.1448 7.01398C21.0789 7.01398 13.7295 14.6588 13.7295 24.0892C13.7295 33.5196 21.0789 41.1644 30.1448 41.1644Z" fill="white" stroke="#0090FF" stroke-width="0.8"/>
<g clip-path="url(#clip0_19179_68830)">
<path d="M30.3996 36.8C37.4689 36.8 43.1996 31.0693 43.1996 24C43.1996 16.9308 37.4689 11.2 30.3996 11.2C23.3304 11.2 17.5996 16.9308 17.5996 24C17.5996 31.0693 23.3304 36.8 30.3996 36.8Z" fill="#0090FF"/>
<path d="M30.4454 21.7046C30.743 20.4542 31.1014 19.3302 31.4822 18.5966C31.6222 18.2462 32.1902 17.407 32.8134 16.8526C33.851 15.9286 35.015 15.6942 36.227 16.455L36.1206 16.6238L36.227 16.455C36.8454 16.843 37.0934 17.2422 36.9846 17.6182C36.9046 17.8982 36.5982 18.1222 36.4342 18.099C36.1942 18.123 35.9526 18.075 35.7222 17.9054C35.5283 17.756 35.3786 17.5566 35.2894 17.3286C35.1198 16.9286 34.8974 16.7926 34.6246 16.8246C34.427 16.847 34.1974 16.9734 34.1246 17.0582L33.9366 17.2662C33.7905 17.4218 33.6608 17.592 33.5494 17.7742C33.1686 18.4086 32.8174 19.571 32.3302 21.9798L35.559 22.4526L35.3814 23.7462L32.1046 23.2662L31.9646 24.1174L31.9286 24.3302C31.9094 24.4406 31.8886 24.5606 31.8646 24.6886L35.1734 25.1734L34.9838 26.4654L31.5974 25.9694C31.2062 27.6318 30.691 29.4134 30.327 30.1166C30.1862 30.4678 29.619 31.3054 28.9958 31.8606C27.9582 32.7838 26.7942 33.019 25.5822 32.2582C24.9638 31.8702 24.7158 31.4702 24.8246 31.0942C24.9046 30.8142 25.211 30.591 25.375 30.6142C25.615 30.5902 25.8566 30.6382 26.087 30.807C26.2646 30.9382 26.4118 31.1286 26.5198 31.3846C26.6894 31.7838 26.9118 31.9206 27.1846 31.8886C27.3822 31.8654 27.6118 31.739 27.6846 31.6542C28.4102 30.8462 28.9854 29.2894 29.7126 25.6942L26.4838 25.2206L26.6614 23.927L29.9382 24.407L30.079 23.5566C30.1102 23.3655 30.1435 23.1749 30.179 22.9846L26.883 22.5022L27.0718 21.2102L30.4454 21.7046Z" fill="white"/>
</g>
</g>
<defs>
<filter id="filter0_d_19179_68830" x="0.250249" y="0.902313" width="55.6616" height="54.1979" filterUnits="userSpaceOnUse" color-interpolation-filters="sRGB">
<feFlood flood-opacity="0" result="BackgroundImageFix"/>
<feColorMatrix in="SourceAlpha" type="matrix" values="0 0 0 0 0 0 0 0 0 0 0 0 0 0 0 0 0 0 127 0" result="hardAlpha"/>
<feOffset dy="3.90698"/>
<feGaussianBlur stdDeviation="1.95349"/>
<feComposite in2="hardAlpha" operator="out"/>
<feColorMatrix type="matrix" values="0 0 0 0 0.141176 0 0 0 0 0.137255 0 0 0 0 0.14902 0 0 0 0.1 0"/>
<feBlend mode="normal" in2="BackgroundImageFix" result="effect1_dropShadow_19179_68830"/>
<feBlend mode="normal" in="SourceGraphic" in2="effect1_dropShadow_19179_68830" result="shape"/>
</filter>
<clipPath id="clip0_19179_68830">
<rect width="25.6" height="25.6" fill="white" transform="translate(17.5996 11.2)"/>
</clipPath>
</defs>
</svg>
